<svg viewBox="0 0 100 100" xmlns="http://www.w3.org/2000/svg" xmlns:xlink="http://www.w3.org/1999/xlink" id="Ebene_1" overflow="hidden"><g><g><circle cx="38.2763" cy="60.2895" r="15" stroke="#706F6F" stroke-width="0.4" stroke-linecap="round" stroke-linejoin="round" fill="none"/><path d="M40.6454 60.2895C40.6454 61.5971 39.5849 62.6577 38.2763 62.6577 36.9687 62.6577 35.9072 61.5971 35.9072 60.2895 35.9072 58.9809 36.9687 57.9204 38.2763 57.9204 39.5849 57.9204 40.6454 58.9809 40.6454 60.2895Z" stroke="#706F6F" stroke-width="0.4" stroke-linecap="round" stroke-linejoin="round" fill="none"/><path d="M49.9365 50.8608 52.1601 48.6381C52.7763 48.0209 52.7763 47.0219 52.1601 46.4057 51.5439 45.7885 50.5439 45.7885 49.9267 46.4057L47.704 48.6284M28.8486 48.6284 26.6259 46.4057C26.0087 45.7885 25.0087 45.7885 24.3925 46.4057 23.7763 47.0219 23.7763 48.0209 24.3925 48.6381L26.6152 50.8608" stroke="#706F6F" stroke-width="0.4" stroke-linecap="round" stroke-linejoin="round" fill="none"/><line x1="38.2763" y1="71.2895" x2="38.2763" y2="70.2895" stroke="#706F6F" stroke-width="0.4" stroke-linecap="round" stroke-linejoin="round" fill="none"/><line x1="38.2763" y1="50.2895" x2="38.2763" y2="49.2895" stroke="#706F6F" stroke-width="0.4" stroke-linecap="round" stroke-linejoin="round" fill="none"/><line x1="46.0546" y1="68.0678" x2="45.3476" y2="67.3608" stroke="#706F6F" stroke-width="0.4" stroke-linecap="round" stroke-linejoin="round" fill="none"/><line x1="49.2763" y1="60.2895" x2="48.2763" y2="60.2895" stroke="#706F6F" stroke-width="0.4" stroke-linecap="round" stroke-linejoin="round" fill="none"/><line x1="28.2763" y1="60.2895" x2="27.2763" y2="60.2895" stroke="#706F6F" stroke-width="0.4" stroke-linecap="round" stroke-linejoin="round" fill="none"/><line x1="30.498" y1="52.5112" x2="31.205" y2="53.2182" stroke="#706F6F" stroke-width="0.4" stroke-linecap="round" stroke-linejoin="round" fill="none"/><line x1="31.205" y1="67.3608" x2="30.498" y2="68.0678" stroke="#706F6F" stroke-width="0.4" stroke-linecap="round" stroke-linejoin="round" fill="none"/><line x1="38.2763" y1="49.2895" x2="38.2763" y2="50.2895" stroke="#706F6F" stroke-width="0.4" stroke-linecap="round" stroke-linejoin="round" fill="none"/><line x1="38.2763" y1="70.2895" x2="38.2763" y2="71.2895" stroke="#706F6F" stroke-width="0.4" stroke-linecap="round" stroke-linejoin="round" fill="none"/><line x1="46.2763" y1="52.2895" x2="39.9501" y2="58.6147" stroke="#706F6F" stroke-width="0.4" stroke-linecap="round" stroke-linejoin="round" fill="none"/><line x1="36.2763" y1="45.4379" x2="36.2763" y2="41.2895" stroke="#706F6F" stroke-width="0.4" stroke-linecap="round" stroke-linejoin="round" fill="none"/><line x1="40.2763" y1="41.2895" x2="40.2763" y2="45.4379" stroke="#706F6F" stroke-width="0.4" stroke-linecap="round" stroke-linejoin="round" fill="none"/><path d="M34.2763 41.2895 42.2763 41.2895 42.2763 38.2895 41.2763 37.2895 35.2763 37.2895 34.2763 38.2895Z" stroke="#706F6F" stroke-width="0.4" stroke-linecap="round" stroke-linejoin="round" fill="none"/><path d="M51.0615 68.1069 51.4911 71.1147C52.4062 71.2143 53.3329 71.2895 54.2763 71.2895 55.2197 71.2895 56.1464 71.2143 57.0615 71.1147L57.954 64.8793C59.9189 64.4477 61.7568 63.6655 63.4013 62.6157L68.4472 66.3969C69.913 65.2397 71.2353 63.9262 72.3837 62.4545L68.6044 57.4125C69.6562 55.7768 70.4306 53.9194 70.8691 51.9672L77.1005 51.0747C77.2118 50.1459 77.2763 49.2329 77.2763 48.2895 77.2763 47.3461 77.2118 46.4331 77.1005 45.5043L70.8691 44.6118C70.4306 42.6596 69.6562 40.8022 68.6044 39.1655L72.3837 34.1245C71.2353 32.6528 69.912 31.3393 68.4472 30.1821L63.4013 33.9633C61.7568 32.9135 59.9189 32.1313 57.954 31.6997L57.0615 25.4643C56.1464 25.3491 55.2197 25.2895 54.2763 25.2895 53.3329 25.2895 52.4062 25.3491 51.4911 25.4643L50.5986 31.6997C48.6337 32.1313 46.7958 32.9135 45.1513 33.9633L40.1054 30.1821C38.6406 31.3393 37.3173 32.6528 36.1689 34.1245L38.5419 37.2895" stroke="#706F6F" stroke-width="0.4" stroke-linecap="round" stroke-linejoin="round" fill="none"/><path d="M45.3681 47.0717C45.9648 42.6791 49.7216 39.2895 54.2763 39.2895 59.2451 39.2895 63.2763 43.3198 63.2763 48.2895 63.2763 53.2592 59.2451 57.2895 54.2763 57.2895 53.8242 57.2895 53.3837 57.2456 52.9501 57.1811" stroke="#706F6F" stroke-width="0.4" stroke-linecap="round" stroke-linejoin="round" fill="none"/></g><g></g><g></g><g></g><g></g><g></g><g></g></g></svg>