<svg viewBox="0 0 100 100" xmlns="http://www.w3.org/2000/svg" xmlns:xlink="http://www.w3.org/1999/xlink" id="Ebene_1" overflow="hidden"><g><g><path d="M63.2763 25.2895 63.2763 33.2895C63.2763 34.3941 64.1717 35.2895 65.2763 35.2895L73.2763 35.2895" stroke="#706F6F" stroke-width="0.4" stroke-linejoin="round" fill="none"/><path d="M35.2763 65.2895 35.2763 72.2895C35.2763 73.9464 36.6194 75.2895 38.2763 75.2895L70.2763 75.2895C71.9332 75.2895 73.2763 73.9464 73.2763 72.2895L73.2763 35.2895 63.2764 25.2895 38.2763 25.2895C36.6194 25.2895 35.2763 26.6326 35.2763 28.2895L35.2763 47.2895" stroke="#706F6F" stroke-width="0.4" stroke-linejoin="round" fill="none"/><path d="M31.2763 61.2895 31.2763 51.2895 36.2763 51.2895C37.9332 51.2895 39.2763 52.6326 39.2763 54.2895L39.2763 54.2895C39.2763 55.9464 37.9332 57.2895 36.2763 57.2895L31.2763 57.2895" stroke="#706F6F" stroke-width="0.4" stroke-linecap="round" stroke-linejoin="round" fill="none"/><line x1="55.2763" y1="51.2895" x2="62.2763" y2="51.2895" stroke="#706F6F" stroke-width="0.4" stroke-linecap="round" stroke-linejoin="round" fill="none"/><line x1="55.2763" y1="57.2895" x2="60.2763" y2="57.2895" stroke="#706F6F" stroke-width="0.4" stroke-linecap="round" stroke-linejoin="round" fill="none"/><line x1="55.2763" y1="61.2895" x2="55.2763" y2="51.2895" stroke="#706F6F" stroke-width="0.4" stroke-linecap="round" stroke-linejoin="round" fill="none"/><path d="M47.2763 61.2895 43.2763 61.2895 43.2763 51.2895 47.2763 51.2895C49.4854 51.2895 51.2763 53.0804 51.2763 55.2895L51.2763 57.2895C51.2763 59.4986 49.4854 61.2895 47.2763 61.2895Z" stroke="#706F6F" stroke-width="0.4" stroke-linecap="round" stroke-linejoin="round" fill="none"/><path d="M64.2763 65.2895 30.2763 65.2895C28.6194 65.2895 27.2763 63.9464 27.2763 62.2895L27.2763 50.2895C27.2763 48.6326 28.6194 47.2895 30.2763 47.2895L64.2763 47.2895C65.9332 47.2895 67.2763 48.6326 67.2763 50.2895L67.2763 62.2895C67.2763 63.9464 65.9332 65.2895 64.2763 65.2895Z" stroke="#706F6F" stroke-width="0.4" stroke-linecap="round" stroke-linejoin="round" fill="none"/></g><g></g><g></g><g></g><g></g><g></g><g></g></g></svg>