<svg viewBox="0 0 100 100" xmlns="http://www.w3.org/2000/svg" xmlns:xlink="http://www.w3.org/1999/xlink" id="Ebene_1" overflow="hidden"><g><g><path d="M75.2763 70.2895C75.2763 71.9467 73.9326 73.2895 72.2763 73.2895L28.2763 73.2895C26.6201 73.2895 25.2763 71.9467 25.2763 70.2895L25.2763 38.2895C25.2763 36.6323 26.6201 35.2895 28.2763 35.2895L72.2763 35.2895C73.9326 35.2895 75.2763 36.6323 75.2763 38.2895L75.2763 70.2895Z" stroke="#706F6F" stroke-width="0.4" stroke-linejoin="round" fill="none"/><path d="M43.2763 35.2895 43.2763 29.2895C43.2763 28.185 44.1718 27.2895 45.2763 27.2895L55.2763 27.2895C56.3808 27.2895 57.2763 28.185 57.2763 29.2895L57.2763 35.2895" stroke="#706F6F" stroke-width="0.4" stroke-linejoin="round" fill="none"/><line x1="35.2763" y1="35.2895" x2="35.2763" y2="73.2895" stroke="#706F6F" stroke-width="0.4" stroke-linejoin="round" fill="none"/><line x1="39.2763" y1="35.2895" x2="39.2763" y2="73.2895" stroke="#706F6F" stroke-width="0.4" stroke-linejoin="round" fill="none"/><line x1="61.2763" y1="35.2895" x2="61.2763" y2="73.2895" stroke="#706F6F" stroke-width="0.4" stroke-linejoin="round" fill="none"/><line x1="65.2763" y1="35.2895" x2="65.2763" y2="73.2895" stroke="#706F6F" stroke-width="0.4" stroke-linejoin="round" fill="none"/></g><g></g><g></g><g></g><g></g><g></g><g></g></g></svg>