<svg viewBox="0 0 100 100" xmlns="http://www.w3.org/2000/svg" xmlns:xlink="http://www.w3.org/1999/xlink" id="Ebene_1" overflow="hidden"><style>
.MsftOfcThm_Accent1_Stroke_v2 {
 stroke:#A01441; 
}
</style>
<g><g><line x1="35.3121" y1="42.9821" x2="57.3121" y2="42.9821" class="MsftOfcThm_Accent1_Stroke_v2" stroke="#A01441" stroke-width="2" stroke-linecap="round" stroke-linejoin="round" fill="none"/><line x1="51.3121" y1="48.9821" x2="35.3121" y2="48.9821" class="MsftOfcThm_Accent1_Stroke_v2" stroke="#A01441" stroke-width="2" stroke-linecap="round" stroke-linejoin="round" fill="none"/><line x1="35.3121" y1="54.9821" x2="45.3121" y2="54.9821" class="MsftOfcThm_Accent1_Stroke_v2" stroke="#A01441" stroke-width="2" stroke-linecap="round" stroke-linejoin="round" fill="none"/><path d="M68.3121 38.9821 45.3121 61.9821 43.3121 68.9821 50.3121 66.9821 73.3121 43.9821Z" class="MsftOfcThm_Accent1_Stroke_v2" stroke="#A01441" stroke-width="2" stroke-linejoin="round" fill="none"/><line x1="65.3121" y1="41.9821" x2="70.3121" y2="46.9821" class="MsftOfcThm_Accent1_Stroke_v2" stroke="#A01441" stroke-width="2" stroke-linejoin="round" fill="none"/><path d="M27.3121 36.9821 36.3121 36.9821C37.9684 36.9821 39.3121 35.6393 39.3121 33.9821L39.3121 24.9821" class="MsftOfcThm_Accent1_Stroke_v2" stroke="#A01441" stroke-width="2" stroke-linejoin="round" fill="none"/><path d="M65.3121 36.9821 65.3121 27.9821C65.3121 26.3249 63.9684 24.9821 62.3121 24.9821L39.3121 24.9821 27.3121 36.9821 27.3121 71.9821C27.3121 73.6393 28.6559 74.9821 30.3121 74.9821L62.3121 74.9821C63.9684 74.9821 65.3121 73.6393 65.3121 71.9821L65.3121 51.9821" class="MsftOfcThm_Accent1_Stroke_v2" stroke="#A01441" stroke-width="2" stroke-linecap="round" stroke-linejoin="round" fill="none"/></g><g></g><g></g><g></g><g></g><g></g><g></g></g></svg>